<mxfile host="app.diagrams.net" modified="2023-11-01T19:09:20.640Z" agent="Mozilla/5.0 (Windows NT 10.0; Win64; x64) AppleWebKit/537.36 (KHTML, like Gecko) Chrome/118.0.0.0 Safari/537.36" etag="Y2qDokwrrMRmWL8M2ZNp" version="22.0.8" type="github">
  <diagram name="Seite-1" id="xikOmMtDKbGpDyViqX2l">
    <mxGraphModel dx="1134" dy="671" grid="0" gridSize="10" guides="1" tooltips="1" connect="1" arrows="1" fold="1" page="1" pageScale="1" pageWidth="1654" pageHeight="1169" math="0" shadow="0">
      <root>
        <mxCell id="0" />
        <mxCell id="1" parent="0" />
        <mxCell id="mOXWSYQu6suwUTaB2nQH-1" value="PACMan" style="rounded=0;whiteSpace=wrap;html=1;horizontal=1;verticalAlign=top;fontSize=20;" parent="1" vertex="1">
          <mxGeometry x="214" y="145" width="436" height="385" as="geometry" />
        </mxCell>
        <mxCell id="mOXWSYQu6suwUTaB2nQH-39" value="Game&lt;br style=&quot;font-size: 16px;&quot;&gt;" style="rounded=0;whiteSpace=wrap;html=1;verticalAlign=top;align=center;fontSize=16;" parent="1" vertex="1">
          <mxGeometry x="227" y="290" width="410" height="230" as="geometry" />
        </mxCell>
        <mxCell id="mOXWSYQu6suwUTaB2nQH-2" value="User" style="shape=umlActor;verticalLabelPosition=bottom;verticalAlign=top;html=1;outlineConnect=0;" parent="1" vertex="1">
          <mxGeometry x="70" y="230" width="50" height="90" as="geometry" />
        </mxCell>
        <mxCell id="mOXWSYQu6suwUTaB2nQH-8" value="Player&lt;br&gt;(Movement)" style="ellipse;whiteSpace=wrap;html=1;fillColor=#dae8fc;strokeColor=#6c8ebf;" parent="1" vertex="1">
          <mxGeometry x="252" y="387" width="120" height="50" as="geometry" />
        </mxCell>
        <mxCell id="mOXWSYQu6suwUTaB2nQH-9" value="Start Game" style="ellipse;whiteSpace=wrap;html=1;fillColor=#dae8fc;strokeColor=#6c8ebf;" parent="1" vertex="1">
          <mxGeometry x="226" y="200" width="120" height="50" as="geometry" />
        </mxCell>
        <mxCell id="mOXWSYQu6suwUTaB2nQH-27" value="" style="endArrow=classic;html=1;rounded=0;exitX=0.5;exitY=0.5;exitDx=0;exitDy=0;exitPerimeter=0;entryX=0;entryY=0.5;entryDx=0;entryDy=0;" parent="1" source="mOXWSYQu6suwUTaB2nQH-2" target="mOXWSYQu6suwUTaB2nQH-9" edge="1">
          <mxGeometry width="50" height="50" relative="1" as="geometry">
            <mxPoint x="110" y="280" as="sourcePoint" />
            <mxPoint x="160" y="230" as="targetPoint" />
          </mxGeometry>
        </mxCell>
        <mxCell id="mOXWSYQu6suwUTaB2nQH-30" value="" style="endArrow=classic;html=1;rounded=0;entryX=0;entryY=0.5;entryDx=0;entryDy=0;exitX=0.5;exitY=0.5;exitDx=0;exitDy=0;exitPerimeter=0;" parent="1" source="mOXWSYQu6suwUTaB2nQH-2" target="mOXWSYQu6suwUTaB2nQH-8" edge="1">
          <mxGeometry width="50" height="50" relative="1" as="geometry">
            <mxPoint x="85" y="275" as="sourcePoint" />
            <mxPoint x="400" y="320" as="targetPoint" />
          </mxGeometry>
        </mxCell>
        <mxCell id="mOXWSYQu6suwUTaB2nQH-31" value="Check for Gameover" style="ellipse;whiteSpace=wrap;html=1;fillColor=#dae8fc;strokeColor=#6c8ebf;" parent="1" vertex="1">
          <mxGeometry x="524" y="200" width="120" height="50" as="geometry" />
        </mxCell>
        <mxCell id="mOXWSYQu6suwUTaB2nQH-42" value="" style="endArrow=classic;html=1;rounded=0;exitX=0;exitY=0.5;exitDx=0;exitDy=0;entryX=1;entryY=0.5;entryDx=0;entryDy=0;" parent="1" source="mOXWSYQu6suwUTaB2nQH-31" target="mOXWSYQu6suwUTaB2nQH-9" edge="1">
          <mxGeometry width="50" height="50" relative="1" as="geometry">
            <mxPoint x="290" y="350" as="sourcePoint" />
            <mxPoint x="340" y="300" as="targetPoint" />
            <Array as="points" />
          </mxGeometry>
        </mxCell>
        <mxCell id="mOXWSYQu6suwUTaB2nQH-45" value="Load Maze" style="ellipse;whiteSpace=wrap;html=1;fillColor=#dae8fc;strokeColor=#6c8ebf;" parent="1" vertex="1">
          <mxGeometry x="227" y="272.5" width="120" height="47.5" as="geometry" />
        </mxCell>
        <mxCell id="_e6vXAC38QxGMkfROBKg-1" value="Benutzer&lt;br&gt;" style="rounded=0;whiteSpace=wrap;html=1;fillColor=#dae8fc;strokeColor=#6c8ebf;" vertex="1" parent="1">
          <mxGeometry x="310" y="790" width="120" height="60" as="geometry" />
        </mxCell>
        <mxCell id="_e6vXAC38QxGMkfROBKg-2" value="PACMan&lt;br&gt;Programm" style="rounded=0;whiteSpace=wrap;html=1;fillColor=#d5e8d4;strokeColor=#82b366;" vertex="1" parent="1">
          <mxGeometry x="517" y="790" width="120" height="60" as="geometry" />
        </mxCell>
        <mxCell id="_e6vXAC38QxGMkfROBKg-4" value="" style="endArrow=classic;html=1;rounded=0;entryX=0;entryY=0.25;entryDx=0;entryDy=0;exitX=1;exitY=0.25;exitDx=0;exitDy=0;" edge="1" parent="1" source="_e6vXAC38QxGMkfROBKg-1" target="_e6vXAC38QxGMkfROBKg-2">
          <mxGeometry width="50" height="50" relative="1" as="geometry">
            <mxPoint x="480" y="800" as="sourcePoint" />
            <mxPoint x="510" y="810" as="targetPoint" />
          </mxGeometry>
        </mxCell>
        <mxCell id="_e6vXAC38QxGMkfROBKg-5" value="Tastatur" style="edgeLabel;html=1;align=center;verticalAlign=middle;resizable=0;points=[];" vertex="1" connectable="0" parent="_e6vXAC38QxGMkfROBKg-4">
          <mxGeometry x="-0.0805" y="-1" relative="1" as="geometry">
            <mxPoint y="-2" as="offset" />
          </mxGeometry>
        </mxCell>
        <mxCell id="_e6vXAC38QxGMkfROBKg-6" value="" style="endArrow=classic;html=1;rounded=0;entryX=1;entryY=0.75;entryDx=0;entryDy=0;exitX=0;exitY=0.75;exitDx=0;exitDy=0;" edge="1" parent="1" source="_e6vXAC38QxGMkfROBKg-2" target="_e6vXAC38QxGMkfROBKg-1">
          <mxGeometry width="50" height="50" relative="1" as="geometry">
            <mxPoint x="430" y="890" as="sourcePoint" />
            <mxPoint x="517" y="890" as="targetPoint" />
            <Array as="points" />
          </mxGeometry>
        </mxCell>
        <mxCell id="_e6vXAC38QxGMkfROBKg-7" value="Bildschirm" style="edgeLabel;html=1;align=center;verticalAlign=middle;resizable=0;points=[];" vertex="1" connectable="0" parent="_e6vXAC38QxGMkfROBKg-6">
          <mxGeometry x="-0.0805" y="-1" relative="1" as="geometry">
            <mxPoint y="2" as="offset" />
          </mxGeometry>
        </mxCell>
        <mxCell id="_e6vXAC38QxGMkfROBKg-9" value="" style="endArrow=classic;html=1;rounded=0;exitX=0.5;exitY=1;exitDx=0;exitDy=0;entryX=0.5;entryY=0;entryDx=0;entryDy=0;" edge="1" parent="1" source="mOXWSYQu6suwUTaB2nQH-9" target="mOXWSYQu6suwUTaB2nQH-45">
          <mxGeometry width="50" height="50" relative="1" as="geometry">
            <mxPoint x="480" y="410" as="sourcePoint" />
            <mxPoint x="530" y="360" as="targetPoint" />
          </mxGeometry>
        </mxCell>
        <mxCell id="_e6vXAC38QxGMkfROBKg-12" value="Eat Ghost" style="ellipse;whiteSpace=wrap;html=1;fillColor=#dae8fc;strokeColor=#6c8ebf;" vertex="1" parent="1">
          <mxGeometry x="450" y="387" width="126" height="50" as="geometry" />
        </mxCell>
        <mxCell id="_e6vXAC38QxGMkfROBKg-13" value="" style="endArrow=classic;html=1;rounded=0;entryX=0.5;entryY=1;entryDx=0;entryDy=0;exitX=0.87;exitY=0.005;exitDx=0;exitDy=0;exitPerimeter=0;" edge="1" parent="1" source="mOXWSYQu6suwUTaB2nQH-39" target="mOXWSYQu6suwUTaB2nQH-31">
          <mxGeometry width="50" height="50" relative="1" as="geometry">
            <mxPoint x="584" y="280" as="sourcePoint" />
            <mxPoint x="530" y="360" as="targetPoint" />
          </mxGeometry>
        </mxCell>
        <mxCell id="_e6vXAC38QxGMkfROBKg-14" value="Count Points" style="ellipse;whiteSpace=wrap;html=1;fillColor=#dae8fc;strokeColor=#6c8ebf;" vertex="1" parent="1">
          <mxGeometry x="450" y="320" width="118" height="50" as="geometry" />
        </mxCell>
        <mxCell id="_e6vXAC38QxGMkfROBKg-15" value="Move Ghost" style="ellipse;whiteSpace=wrap;html=1;fillColor=#dae8fc;strokeColor=#6c8ebf;" vertex="1" parent="1">
          <mxGeometry x="450" y="455" width="126" height="50" as="geometry" />
        </mxCell>
      </root>
    </mxGraphModel>
  </diagram>
</mxfile>
